<?xml version="1.0" encoding="UTF-8"?>
<svg id="Layer_2" data-name="Layer 2" xmlns="http://www.w3.org/2000/svg" viewBox="0 0 63.94 60.66">
  <defs>
    <style>
      .cls-1 {
        fill: #ea21ad;
        fill-rule: evenodd;
        stroke: #cbcbcb;
      }
    </style>
  </defs>
  <g id="Scratch">
    <path class="cls-1" d="m39.54,2.3c1.88.73,3.43,2.05,5.17,3.9-4.33,4.52-8.23,6.03-12.73,6.03s-8.41-1.51-12.74-6.03c1.73-1.85,3.29-3.18,5.17-3.9.52,1.59,1.31,3.31,2.37,4.78,1.29,1.8,3.03,3.32,5.2,3.32s3.9-1.53,5.19-3.32c1.06-1.48,1.85-3.19,2.37-4.78h0Zm-12.83-.11c1.74.27,3.45.55,5.27.54,1.83.01,3.53-.26,5.26-.54-.47,1.27-.92,2.61-1.71,3.71-1.1,1.53-2.37,2.48-3.55,2.48s-2.46-.95-3.56-2.48c-.79-1.11-1.24-2.44-1.71-3.71ZM25.08,0c-.09,0-.18.01-.27.04-3.05.82-5.26,2.69-7.65,5.34-3.41,1.23-6.83,2.67-8.08,5.29L.1,29.65c-.06.14-.1.28-.1.43v29.56c0,.56.45,1.01,1.01,1.01h8.68c.55,0,1-.45,1.01-1l.32-24.44,3.11-8.29v30.2c0,.56.45,1.01,1.01,1.01h33.68c.56,0,1.01-.45,1.01-1.01v-30.2s3.1,8.29,3.1,8.29l.31,24.44c0,.55.46,1,1.01,1h8.68c.55,0,1.01-.45,1.01-1.01v-29.56c0-.15-.03-.3-.1-.43l-8.99-18.98c-1.53-3.23-5.4-4.52-8.08-5.29-2.38-2.65-4.6-4.52-7.65-5.34-.17-.05-.35-.05-.53,0-2.23.49-4.3.68-6.64.68-2.34,0-4.41-.2-6.65-.69C25.24,0,25.16,0,25.09,0h0Z"/>
  </g>
</svg>