<?xml version="1.0" encoding="UTF-8"?>
<svg id="Layer_2" data-name="Layer 2" xmlns="http://www.w3.org/2000/svg" viewBox="0 0 64.94 61.67">
  <defs>
    <style>
      .cls-1 {
        fill: #f7a6de;
        stroke: #cbcbcb;
        stroke-miterlimit: 10;
      }
    </style>
  </defs>
  <g id="Scratch">
    <path class="cls-1" d="m25.5,3.35c.72,2.44,1.95,5.28,3.73,7.54l-3.15,2.12-2.52-7.99,1.94-1.67Zm13.95,0l1.94,1.67-2.53,7.98-3.14-2.12c1.78-2.26,3.01-5.1,3.73-7.54h0Zm-11.92-.38c1.64.36,3.25.49,4.95.47,1.7.02,3.31-.11,4.94-.47-.94,2.83-2.76,6.21-4.95,8.11-2.19-1.9-4-5.29-4.94-8.12h0Zm11.36-2.47c-.15,0-.31.04-.45.1-1.99.64-3.84.85-5.98.85-2.14,0-4-.18-5.99-.85-.16-.06-.32-.09-.46-.09-.28-.01-.54.14-.73.35l-3.46,2.98-4.64,2.11c-3.04,1.39-5.46,2.24-7.51,5.06-.04.05-.07.11-.1.16L.6,30.15c-.06.14-.1.28-.1.43v29.57c0,.56.45,1.01,1.01,1.01h8.68c.55,0,1-.45,1.01-1l.32-24.45,3.1-8.29v30.2c0,.56.46,1.01,1.02,1.01h33.68c.56,0,1.01-.45,1.01-1.01l.04-30.17,3.06,8.26.31,24.45c0,.55.46,1,1.01,1h8.68c.56,0,1.01-.45,1.01-1.01v-29.57c0-.15-.04-.29-.1-.43l-8.98-18.98c-.03-.06-.06-.11-.09-.16-2.06-2.82-4.48-3.67-7.52-5.06l-4.64-2.11-3.43-2.96c-.19-.24-.48-.38-.78-.38h0Z"/>
  </g>
</svg>