<?xml version="1.0" encoding="UTF-8"?>
<svg id="Layer_2" data-name="Layer 2" xmlns="http://www.w3.org/2000/svg" viewBox="0 0 62.12 47.97">
  <defs>
    <style>
      .cls-1 {
        fill: #fafafa;
        stroke: #555;
        stroke-miterlimit: 10;
        stroke-width: 1.5px;
      }
    </style>
  </defs>
  <g id="Scratch">
    <path class="cls-1" d="m13.1,8.98c.85.39,1.88.77,3.1,1.12l-2.53,7.56c-.82,2.46-2.55,3.54-4.58,3.29l4.01-11.97Zm35.92,0l4.01,11.98c-2.04.25-3.76-.82-4.59-3.29l-2.53-7.56c1.23-.35,2.26-.73,3.11-1.13h0ZM14.48.75c-.45-.01-.85.27-.99.69L.8,39.36c-.19.55.14,1.15.7,1.3l24.33,6.53c.52.14,1.05-.15,1.22-.66l4.01-12.01,4.02,12.01c.17.51.7.79,1.22.66l24.33-6.53c.56-.15.88-.74.7-1.3L48.63,1.44c-.2-.61-.91-.88-1.47-.56-2.52,1.46-5.94,3.08-16.1,3.08S17.48,2.34,14.96.89c-.14-.08-.31-.13-.48-.14h0Z"/>
  </g>
</svg>