<?xml version="1.0" encoding="UTF-8"?>
<svg id="Layer_2" data-name="Layer 2" xmlns="http://www.w3.org/2000/svg" viewBox="0 0 46.03 63.51">
  <g id="Scratch">
    <path d="m37.73,7.41l1.2,10.51c-1.42-.28-2.4-1.37-2.62-3.29l-.74-6.46c.83-.24,1.54-.49,2.16-.76h0Zm-29.42,0c.62.27,1.34.52,2.18.76l-.74,6.45c-.22,1.93-1.21,3.02-2.63,3.3l1.2-10.51ZM8.04,0c-.53-.01-.97.37-1.03.9L0,62.39c-.06.6.4,1.12,1,1.12h12.38c.47,0,.87-.31.98-.77l8.65-35.2,8.65,35.2c.12.45.52.77.98.77h12.38c.6,0,1.07-.52,1-1.12L39.03.9c-.09-.72-.88-1.12-1.51-.75-1.98,1.15-5.99,2.56-14.5,2.56S10.5,1.29,8.52.14c-.14-.09-.31-.14-.48-.14h0Z"/>
  </g>
</svg>