<?xml version="1.0" encoding="UTF-8"?>
<svg id="Layer_2" data-name="Layer 2" xmlns="http://www.w3.org/2000/svg" viewBox="0 0 508.08 414.74">
  <defs>
    <style>
      .cls-1 {
        fill: #F50141;
      }
    </style>
  </defs>
  <g class="cls-1" id="Predict_-_Introduction" data-name="Predict - Introduction">
    <g>
      <g>
        <path d="m107.73,343.12C48.35,343.12,0,294.77,0,235.39s48.35-107.73,107.73-107.73,107.73,48.35,107.73,107.73-48.35,107.72-107.73,107.72h0Zm0-200.06c-50.89,0-92.33,41.44-92.33,92.33s41.44,92.33,92.33,92.33c50.89,0,92.33-41.36,92.33-92.33s-41.44-92.33-92.33-92.33h0Z"/>
        <path d="m400.35,343.12c-59.38,0-107.73-48.35-107.73-107.73s48.35-107.73,107.73-107.73,107.73,48.35,107.73,107.73-48.35,107.73-107.73,107.73Zm0-200.06c-50.89,0-92.33,41.44-92.33,92.33s41.44,92.33,92.33,92.33,92.33-41.44,92.33-92.33-41.44-92.33-92.33-92.33Z"/>
        <path d="m255.08,230.3H107.73c-2.54,0-5-1.27-6.43-3.41-1.43-2.14-1.67-4.84-.72-7.22l62.08-149.01c1.19-2.86,3.97-4.76,7.07-4.76h168.07c2.7,0,5.24,1.43,6.67,3.81,1.35,2.38,1.43,5.24.08,7.62l-82.73,149.01c-1.35,2.46-3.97,3.97-6.75,3.97h0Zm-135.83-15.4h131.31l74.23-133.61h-149.88l-55.65,133.61Z"/>
        <path d="m255.08,230.3c-2.7,0-5.24-1.43-6.67-3.89l-85.26-148.93c-.16-.32-.32-.63-.47-.95l-8.02-20.17h-36.04c-8.65,0-15.72-7.07-15.72-15.72v-13.73c0-4.53,1.98-8.81,5.32-11.83,3.41-3.02,7.94-4.37,12.38-3.81l68.11,8.89c9.53,1.27,16.43,9.76,15.72,19.37-.72,9.37-8.65,16.75-18.1,16.75h-15.08l5.56,13.89,85.02,148.53c2.14,3.65.87,8.41-2.86,10.48-1.27.79-2.62,1.11-3.89,1.11h0ZM118.61,26.67l-.4,14.05,41.6.32h26.44c1.43,0,2.62-1.11,2.7-2.54.08-1.43-.95-2.7-2.38-2.94l-67.96-8.89Z"/>
        <path d="m400.35,243.09c-3.1,0-6.03-1.91-7.14-4.92L305.24,10.48c-.95-2.38-.63-5,.79-7.14,1.43-2.06,3.81-3.34,6.35-3.34h63.51c14.85,0,26.83,12.07,26.83,26.83s-12.07,26.83-26.83,26.83h-27.31c-4.29,0-7.7-3.41-7.7-7.7s3.41-7.7,7.7-7.7h27.31c6.35,0,11.43-5.16,11.43-11.43s-5.16-11.43-11.43-11.43h-52.24l83.91,217.21c1.51,3.97-.47,8.41-4.37,9.92-1.03.41-1.91.56-2.86.56h0Z"/>
        <path d="m24.77,133.13c-2.38,0-4.69-1.11-6.19-3.1-2.54-3.41-1.83-8.26,1.59-10.79,74.78-55.49,137.58-22.15,140.19-20.64,3.73,2.06,5.08,6.75,3.02,10.48-2.06,3.73-6.67,5.08-10.48,3.02-2.46-1.35-57.16-29.77-123.61,19.53-1.35,1.03-2.93,1.51-4.52,1.51h0Z"/>
      </g>
      <path d="m433.65,391.16c-37.14-17.39-97.57-17.39-134.7,0-24.76,11.59-65.05,11.59-89.81,0-37.14-17.39-97.56-17.39-134.7,0-11.99,5.61-27.93,8.71-44.87,8.71h-.02v14.87s.02,0,.02,0c25.43,0,49.34-4.64,67.32-13.06h0c24.76-11.59,65.04-11.59,89.81,0,18.57,8.69,42.96,13.04,67.35,13.04s48.78-4.34,67.34-13.04c24.77-11.59,65.05-11.59,89.8,0,17.99,8.42,41.91,13.06,67.34,13.06v-14.87c-16.95,0-32.89-3.1-44.88-8.71h0Z"/>
    </g>
  </g>
</svg>