<?xml version="1.0" encoding="UTF-8"?>
<svg id="Layer_2" data-name="Layer 2" xmlns="http://www.w3.org/2000/svg" viewBox="0 0 57.84 56.83">
  <defs>
    <style>
      .cls-1 {
        fill: #9cc487;
      }
    </style>
  </defs>
  <g id="Scratch">
    <path class="cls-1" d="m23.2,2.26c1.9.4,3.75.58,5.72.57,1.96.02,3.81-.17,5.71-.57-.47,1.44-1.32,3.21-2.36,4.83-1.04,1.62-2.26,2.83-3.35,3.64-1.09-.8-2.31-2.02-3.35-3.64-1.04-1.62-1.89-3.4-2.36-4.83h0ZM35.83,0c-.09,0-.18.01-.27.03-2.22.6-4.28.79-6.64.79s-4.42-.19-6.64-.79c-.1-.02-.2-.04-.3-.03-.1,0-.18.02-.27.04l-6.6,2.1c-3.54,1.12-5.33,2.88-7.78,5.14L.33,13.75c-.38.35-.43.93-.13,1.34l7.22,9.77c.36.48,1.06.55,1.5.14l2.54-2.34c.47,2.03.97,3.7,1.38,5.14.78,2.68,1.21,4.47.67,6.7-1.91,7.93-3.09,13.47-3.09,21.32,0,.56.45,1.01,1.01,1.01h34.97c.56,0,1.01-.45,1.01-1.01,0-7.86-1.18-13.39-3.09-21.32-.54-2.24-.1-4.02.67-6.7.41-1.43.92-3.11,1.38-5.14l2.55,2.34c.44.41,1.14.34,1.5-.14l7.22-9.77c.31-.41.25-.99-.13-1.34l-7.01-6.47c-2.44-2.25-4.23-4.01-7.77-5.14L36.13.04c-.09-.03-.2-.04-.3-.04h0Z"/>
  </g>
</svg>