<?xml version="1.0" encoding="UTF-8"?>
<svg id="Layer_2" data-name="Layer 2" xmlns="http://www.w3.org/2000/svg" viewBox="0 0 41.82 47.8">
  <defs>
    <style>
      .cls-1, .cls-2 {
        fill: #555;
      }

      .cls-3 {
        fill: #fff;
        font-family: IBMPlexSans-Text, 'IBM Plex Sans';
        font-size: 13.33px;
      }

      .cls-2, .cls-4 {
        stroke: #555;
        stroke-miterlimit: 10;
      }

      .cls-4 {
        fill: #fafafa;
        stroke-width: 1.5px;
      }
    </style>
  </defs>
  <g id="Scratch">
    <g id="probability">
      <g id="machine">
        <path class="cls-4" d="m41.07,11.26v31.56c0,2.33-1.9,4.23-4.23,4.23H4.98c-2.33,0-4.23-1.9-4.23-4.23V10.79h40.32v.47h0Z"/>
        <path class="cls-4" d="m4.98.75h31.87c2.33,0,4.23,1.9,4.23,4.23v6.71H.75v-6.71C.75,2.65,2.65.75,4.98.75h0Z"/>
        <path class="cls-1" d="m20.91,14.31c3.81,0,7.26,1.55,9.76,4.04,2.5,2.5,4.04,5.95,4.04,9.76s-1.55,7.26-4.04,9.76c-2.5,2.5-5.95,4.04-9.76,4.04s-7.26-1.55-9.76-4.04c-2.5-2.5-4.04-5.95-4.04-9.76s1.55-7.26,4.04-9.76c2.5-2.5,5.95-4.04,9.76-4.04h0Zm9.09,4.71c-2.33-2.33-5.54-3.77-9.09-3.77s-6.77,1.44-9.09,3.77c-2.33,2.33-3.77,5.54-3.77,9.09s1.44,6.77,3.77,9.09c2.33,2.33,5.54,3.77,9.09,3.77s6.77-1.44,9.09-3.77c2.33-2.33,3.77-5.54,3.77-9.09s-1.44-6.77-3.77-9.09h0Z"/>
        <path class="cls-1" d="m6.92,3.82h6.27c.66,0,1.25.27,1.69.7h0c.43.44.7,1.03.7,1.69v.28c0,.66-.27,1.26-.7,1.69h0c-.43.44-1.03.7-1.69.7h-6.27c-.66,0-1.25-.27-1.69-.7h0c-.43-.44-.7-1.03-.7-1.69v-.28c0-.66.27-1.25.7-1.69h0c.43-.44,1.03-.7,1.69-.7h0Zm6.27.96h-6.27c-.4,0-.75.16-1.01.42h0c-.26.26-.42.62-.42,1.01v.28c0,.4.16.75.42,1.01h0c.26.26.62.42,1.01.42h6.27c.4,0,.75-.16,1.01-.42h0c.26-.26.42-.62.42-1.02v-.28c0-.4-.16-.75-.42-1.01h0c-.26-.26-.62-.42-1.01-.42Z"/>
        <path class="cls-1" d="m26.36,4.28v4.38h-8.68v-4.38h8.68Zm-5.26.96h-2.47v2.47h2.47v-2.47Zm4.3,0h-2.47v2.47h2.47v-2.47Z"/>
        <path class="cls-2" d="m20.91,14.31c3.81,0,7.26,1.55,9.76,4.04,2.5,2.5,4.04,5.95,4.04,9.76s-1.55,7.26-4.04,9.76c-2.5,2.5-5.95,4.04-9.76,4.04s-7.26-1.55-9.76-4.04c-2.5-2.5-4.04-5.95-4.04-9.76s1.55-7.26,4.04-9.76c2.5-2.5,5.95-4.04,9.76-4.04h0Z"/>
      </g>
      <text id="text" class="cls-3" transform="translate(11.16 32.46)"><tspan x="0" y="0">.09</tspan></text>
    </g>
  </g>
</svg>