<?xml version="1.0" encoding="UTF-8"?>
<svg id="Layer_2" data-name="Layer 2" xmlns="http://www.w3.org/2000/svg" viewBox="0 0 65.27 60.99">
  <defs>
    <style>
      .cls-1 {
        fill: #fafafa;
        stroke: #555;
        stroke-miterlimit: 10;
        stroke-width: 1.5px;
      }
    </style>
  </defs>
  <g id="Scratch">
    <path class="cls-1" d="m39.59,3.58l1.93,1.67-2.43,8.04-3.07-2.06c1.64-1.83,2.85-5.5,3.57-7.65Zm-13.9,0c.72,2.15,1.92,5.82,3.57,7.65l-3.07,2.06-2.43-8.04,1.93-1.67Zm2.04-.36c1.63.36,3.23.48,4.92.47,1.68.02,3.28-.1,4.9-.46-.93,2.46-2.66,6.44-4.91,8.22-2.25-1.78-3.99-5.76-4.91-8.23h0Zm-1.53-2.47c-.29,0-.56.14-.75.36l-3.39,2.92-4.22,1.25c-3.49,1.03-5.09,2.43-7.08,5.17L.95,23.91c-.31.42-.25,1,.13,1.35l8.35,7.55c.39.36.99.35,1.38-.02l2.92-2.76v29.19c0,.56.45,1.01,1.01,1.01h35.81c.56,0,1.01-.45,1.01-1.01v-29.19s2.92,2.76,2.92,2.76c.38.37.98.37,1.37.02l8.35-7.55c.38-.35.44-.93.14-1.35l-9.81-13.46c-2-2.74-3.6-4.14-7.09-5.17l-4.22-1.25-3.38-2.92c-.19-.23-.48-.36-.78-.36-.1,0-.19.01-.28.04,0,0,0,0-.01,0h0c-.05.02-.1.04-.16.06-1.99.63-3.83.84-5.97.84s-3.99-.21-5.99-.86c-.05-.02-.1-.04-.15-.05h0s-.02,0-.02,0c-.09-.02-.18-.03-.27-.03h0Z"/>
  </g>
</svg>