<?xml version="1.0" encoding="UTF-8"?>
<svg id="Layer_2" data-name="Layer 2" xmlns="http://www.w3.org/2000/svg" viewBox="0 0 560 337.27">
  <defs>
    <style>
      .cls-1 {
        fill: #F50141;
      }
    </style>
  </defs>
  <g class="cls-1" id="Predict_-_Introduction" data-name="Predict - Introduction">
    <g>
      <g>
        <path d="m551.51,207.64h-64.93c-4.73,0-8.49-3.76-8.49-8.49s3.76-8.49,8.49-8.49h56.44v-43.4c0-11.81-4.64-22.93-13.12-31.32-6.56-6.56-15.23-10.76-24.41-11.81l-64.66-7.88c-13.48-1.66-25.73-7.35-35.61-16.45l-65.62-60.2c-1.84-1.66-4.11-2.54-6.56-2.54h-143.5c-19.07,0-37.54,6.82-51.89,19.34-10.68,9.27-22.05,20.04-33.77,32.02-6.65,6.91-14.7,12.34-23.89,16.19-8.93,3.68-18.73,5.69-28.35,5.69-8.23,0-14.88,6.74-14.88,14.96v81.2c0,2.27,1.84,4.2,4.11,4.2h32.38c4.73,0,8.49,3.76,8.49,8.49s-3.76,8.49-8.49,8.49h-32.38c-11.64,0-21.09-9.45-21.09-21.18v-81.2c0-17.59,14.26-31.94,31.85-31.94,7.44,0,14.96-1.49,21.79-4.38,7-2.98,13.21-7.09,18.29-12.43,12.07-12.43,23.8-23.54,34.91-33.07C144.03,8.31,166.43,0,189.62,0h143.5c6.65,0,13.04,2.54,18.02,7l65.62,60.2c7.26,6.65,16.27,10.85,26.25,12.07l64.48,8.14c12.86,1.49,25.11,7.44,34.3,16.54,11.73,11.55,18.11,26.95,18.11,43.4v51.89c.09,4.64-3.77,8.4-8.4,8.4h0Z"/>
        <path d="m370.65,207.64h-181.3c-4.73,0-8.49-3.76-8.49-8.49s3.76-8.49,8.49-8.49h181.3c4.73,0,8.49,3.76,8.49,8.49,0,4.72-3.85,8.49-8.49,8.49h0Z"/>
        <path d="m28.35,195.03H8.49c-4.73,0-8.49-3.85-8.49-8.49v-49.35c0-4.73,3.76-8.49,8.49-8.49h19.86c4.73,0,8.49,3.76,8.49,8.49s-3.76,8.49-8.49,8.49h-11.38v32.38h11.38c4.73,0,8.49,3.76,8.49,8.49,0,4.64-3.77,8.49-8.49,8.49h0Z"/>
        <path d="m551.51,173.51h-36.31c-4.73,0-8.49-3.76-8.49-8.49s3.76-8.49,8.49-8.49h36.31c4.73,0,8.49,3.76,8.49,8.49s-3.76,8.49-8.49,8.49Z"/>
        <path d="m389.64,112.43H126.18c-3.06,0-5.86-1.66-7.44-4.29-1.49-2.71-1.49-5.95.18-8.57,1.4-2.27,34.65-56.09,80.76-67.81.7-.18,1.4-.26,2.1-.26h127.4c8.84,0,17.15,4.02,22.66,10.94l44.54,56.26c2.01,2.54,2.36,6.04.96,8.93-1.49,2.89-4.46,4.81-7.7,4.81h0Zm-247.19-16.97h229.69l-33.69-42.52c-2.27-2.89-5.69-4.55-9.36-4.55h-126.26c-26.25,7.09-48.47,31.67-60.38,47.07h0Z"/>
        <path d="m200.11,112.43c-4.73,0-8.49-3.76-8.49-8.49V39.89c0-4.73,3.76-8.49,8.49-8.49s8.49,3.76,8.49,8.49v64.05c0,4.64-3.85,8.49-8.49,8.49Z"/>
        <path d="m288.31,112.43c-4.73,0-8.49-3.76-8.49-8.49V39.89c0-4.73,3.76-8.49,8.49-8.49s8.49,3.76,8.49,8.49v64.05c0,4.64-3.85,8.49-8.49,8.49Z"/>
        <path d="m131.34,265.65c-36.66,0-66.5-29.84-66.5-66.5s29.84-66.5,66.5-66.5,66.5,29.84,66.5,66.5-29.84,66.5-66.5,66.5Zm0-116.03c-27.3,0-49.52,22.23-49.52,49.52s22.23,49.52,49.52,49.52,49.52-22.23,49.52-49.52c0-27.3-22.22-49.52-49.52-49.52Z"/>
        <path d="m131.34,236.25c-20.48,0-37.1-16.62-37.1-37.1s16.62-37.1,37.1-37.1,37.1,16.62,37.1,37.1-16.62,37.1-37.1,37.1Zm0-57.22c-11.11,0-20.12,9.01-20.12,20.12s9.01,20.12,20.12,20.12,20.12-9.01,20.12-20.12c.09-11.11-9.01-20.12-20.12-20.12Z"/>
        <path d="m428.66,265.65c-36.66,0-66.5-29.84-66.5-66.5s29.84-66.5,66.5-66.5,66.5,29.84,66.5,66.5-29.84,66.5-66.5,66.5h0Zm0-116.03c-27.3,0-49.52,22.23-49.52,49.52s22.23,49.52,49.52,49.52,49.52-22.23,49.52-49.52c-.09-27.3-22.23-49.52-49.52-49.52h0Z"/>
        <path d="m428.66,236.25c-20.48,0-37.1-16.62-37.1-37.1s16.62-37.1,37.1-37.1,37.1,16.62,37.1,37.1c0,20.48-16.63,37.1-37.1,37.1h0Zm0-57.22c-11.11,0-20.12,9.01-20.12,20.12s9.01,20.12,20.12,20.12,20.13-9.01,20.13-20.12-9.02-20.12-20.12-20.12h0Z"/>
      </g>
      <path d="m459.61,313.69c-37.14-17.39-97.57-17.39-134.7,0-24.76,11.59-65.05,11.59-89.81,0-37.14-17.39-97.56-17.39-134.7,0-11.99,5.61-27.93,8.71-44.87,8.71h-.02v14.87s.02,0,.02,0c25.43,0,49.34-4.64,67.32-13.06h0c24.76-11.59,65.04-11.59,89.81,0,18.57,8.69,42.96,13.04,67.35,13.04s48.78-4.34,67.34-13.04c24.77-11.59,65.05-11.59,89.8,0,17.99,8.42,41.91,13.06,67.34,13.06v-14.87c-16.95,0-32.89-3.1-44.88-8.71h0Z"/>
    </g>
  </g>
</svg>