<?xml version="1.0" encoding="UTF-8"?>
<svg id="Arrow" width="700pt" height="700pt" version="1.1" viewBox="0 0 700 700" xmlns="http://www.w3.org/2000/svg" xmlns:xlink="http://www.w3.org/1999/xlink">
 <g>
  <path d="m470 298.84-103.14 105.12-1.9844-310.75-30.414 0.66016-0.66016 311.41-104.46-105.79-22.48 22.48 142.81 144.79 143.47-145.45z" fill-rule="evenodd"/>
  <use x="70" y="569.917969" xlink:href="#g"/>
  <use x="72.425781" y="569.917969" xlink:href="#c"/>
  <use x="74.054688" y="569.917969" xlink:href="#a"/>
  <use x="76.296875" y="569.917969" xlink:href="#l"/>
  <use x="78.527344" y="569.917969" xlink:href="#b"/>
  <use x="80.109375" y="569.917969" xlink:href="#a"/>
  <use x="82.351562" y="569.917969" xlink:href="#k"/>
  <use x="85.867188" y="569.917969" xlink:href="#j"/>
  <use x="88.234375" y="569.917969" xlink:href="#i"/>
  <use x="91.539062" y="569.917969" xlink:href="#h"/>
  <use x="93.796875" y="569.917969" xlink:href="#y"/>
  <use x="96.355469" y="569.917969" xlink:href="#x"/>
  <use x="99.164062" y="569.917969" xlink:href="#w"/>
  <use x="101.710938" y="569.917969" xlink:href="#f"/>
  <use x="102.941406" y="569.917969" xlink:href="#v"/>
  <use x="106.609375" y="569.917969" xlink:href="#f"/>
  <use x="107.839844" y="569.917969" xlink:href="#g"/>
  <use x="110.265625" y="569.917969" xlink:href="#u"/>
  <use x="113.078125" y="569.917969" xlink:href="#e"/>
  <use x="70" y="573.222656" xlink:href="#t"/>
  <use x="71.4375" y="573.222656" xlink:href="#c"/>
  <use x="73.070312" y="573.222656" xlink:href="#d"/>
  <use x="75.339844" y="573.222656" xlink:href="#s"/>
  <use x="79.933594" y="573.222656" xlink:href="#b"/>
  <use x="81.515625" y="573.222656" xlink:href="#r"/>
  <use x="83.867188" y="573.222656" xlink:href="#a"/>
  <use x="87.261719" y="573.222656" xlink:href="#e"/>
  <use x="90.027344" y="573.222656" xlink:href="#d"/>
  <use x="92.300781" y="573.222656" xlink:href="#q"/>
  <use x="94.652344" y="573.222656" xlink:href="#p"/>
  <use x="98.15625" y="573.222656" xlink:href="#o"/>
  <use x="100.582031" y="573.222656" xlink:href="#c"/>
  <use x="102.210938" y="573.222656" xlink:href="#d"/>
  <use x="104.480469" y="573.222656" xlink:href="#n"/>
  <use x="105.613281" y="573.222656" xlink:href="#a"/>
  <use x="107.855469" y="573.222656" xlink:href="#m"/>
  <use x="109.816406" y="573.222656" xlink:href="#b"/>
 </g>
</svg>
