<?xml version="1.0" encoding="UTF-8"?>
<svg id="Layer_2" data-name="Layer 2" xmlns="http://www.w3.org/2000/svg" xmlns:xlink="http://www.w3.org/1999/xlink" viewBox="0 0 64.94 61.66">
  <defs>
    <style>
      .cls-1 {
        stroke: #940086;
        stroke-width: .3px;
      }

      .cls-1, .cls-2 {
        fill: none;
      }

      .cls-3 {
        fill: url(#Hatching_Double);
        stroke: #555;
        stroke-miterlimit: 10;
      }

      .cls-3, .cls-4 {
        fill-rule: evenodd;
      }

      .cls-4 {
        fill: #a4bdea;
      }
    </style>
    <pattern id="Hatching_Double" data-name="Hatching Double" x="0" y="0" width="72" height="72" patternTransform="translate(-482.46 631.33) scale(.75)" patternUnits="userSpaceOnUse" viewBox="0 0 72 72">
      <g>
        <rect class="cls-2" width="72" height="72"/>
        <g>
          <line class="cls-1" x1="60.71" y1="75.62" x2="64.19" y2="69.54"/>
          <line class="cls-1" x1="62.45" y1="68.55" x2="58.97" y2="74.62"/>
          <line class="cls-1" x1="46.01" y1="76.42" x2="43.63" y2="69.84"/>
          <line class="cls-1" x1="41.75" y1="70.52" x2="44.13" y2="77.1"/>
          <line class="cls-1" x1="33.44" y1="74.76" x2="35.16" y2="67.97"/>
          <line class="cls-1" x1="33.22" y1="67.48" x2="31.5" y2="74.27"/>
          <line class="cls-1" x1="27.79" y1="74.6" x2="21.35" y2="71.87"/>
          <line class="cls-1" x1="11.88" y1="74.23" x2="13.79" y2="67.49"/>
          <line class="cls-1" x1="11.86" y1="66.95" x2="9.96" y2="73.69"/>
          <line class="cls-1" x1="5.79" y1="73.85" x2="3.78" y2="67.14"/>
          <line class="cls-1" x1="1.86" y1="67.72" x2="3.88" y2="74.42"/>
          <line class="cls-1" x1="48.03" y1="68.21" x2="52.46" y2="73.63"/>
          <line class="cls-1" x1="54.01" y1="72.36" x2="49.58" y2="66.94"/>
        </g>
        <g>
          <line class="cls-1" x1="68.74" y1="25.22" x2="75.26" y2="22.67"/>
          <line class="cls-1" x1="73.2" y1="39.06" x2="70.64" y2="45.58"/>
        </g>
        <g>
          <line class="cls-1" x1="-3.26" y1="25.22" x2="3.26" y2="22.67"/>
          <line class="cls-1" x1="1.2" y1="39.06" x2="-1.36" y2="45.58"/>
          <line class="cls-1" x1=".5" y1="46.31" x2="3.06" y2="39.8"/>
          <line class="cls-1" x1="66.22" y1="4.58" x2="72.39" y2="7.9"/>
          <line class="cls-1" x1="73.33" y1="6.14" x2="67.17" y2="2.82"/>
          <line class="cls-1" x1="66.27" y1="19.01" x2="71.57" y2="14.44"/>
          <line class="cls-1" x1="70.26" y1="12.92" x2="64.96" y2="17.5"/>
          <line class="cls-1" x1="68.74" y1="25.22" x2="75.26" y2="22.67"/>
          <line class="cls-1" x1="74.53" y1="20.81" x2="68.01" y2="23.36"/>
          <line class="cls-1" x1="65.93" y1="33.83" x2="72.76" y2="35.37"/>
          <line class="cls-1" x1="73.2" y1="33.42" x2="66.38" y2="31.88"/>
          <line class="cls-1" x1="65.97" y1="55.2" x2="72.76" y2="56.92"/>
          <line class="cls-1" x1="73.25" y1="54.98" x2="66.47" y2="53.26"/>
          <line class="cls-1" x1="67.01" y1="65.17" x2="73.66" y2="62.98"/>
          <line class="cls-1" x1="73.03" y1="61.08" x2="66.38" y2="63.27"/>
          <line class="cls-1" x1="60.71" y1="3.62" x2="64.19" y2="-2.46"/>
          <line class="cls-1" x1="62.45" y1="-3.45" x2="58.97" y2="2.62"/>
          <line class="cls-1" x1="46.01" y1="4.42" x2="43.63" y2="-2.16"/>
          <line class="cls-1" x1="41.75" y1="-1.48" x2="44.13" y2="5.1"/>
          <line class="cls-1" x1="33.44" y1="2.76" x2="35.16" y2="-4.03"/>
          <line class="cls-1" x1="33.22" y1="-4.52" x2="31.5" y2="2.27"/>
          <line class="cls-1" x1="27.79" y1="2.6" x2="21.35" y2="-.13"/>
          <line class="cls-1" x1="20.57" y1="1.71" x2="27.01" y2="4.44"/>
          <line class="cls-1" x1="11.88" y1="2.23" x2="13.79" y2="-4.51"/>
          <line class="cls-1" x1="11.86" y1="-5.05" x2="9.96" y2="1.69"/>
          <line class="cls-1" x1="5.79" y1="1.85" x2="3.78" y2="-4.86"/>
          <line class="cls-1" x1="1.86" y1="-4.28" x2="3.88" y2="2.42"/>
          <line class="cls-1" x1="62.45" y1="68.55" x2="58.97" y2="74.62"/>
          <line class="cls-1" x1="60.71" y1="75.62" x2="64.19" y2="69.54"/>
          <line class="cls-1" x1="48.03" y1="68.21" x2="52.46" y2="73.63"/>
          <line class="cls-1" x1="54.01" y1="72.36" x2="49.58" y2="66.94"/>
          <line class="cls-1" x1="41.75" y1="70.52" x2="44.13" y2="77.1"/>
          <line class="cls-1" x1="46.01" y1="76.42" x2="43.63" y2="69.84"/>
          <line class="cls-1" x1="33.22" y1="67.48" x2="31.5" y2="74.27"/>
          <line class="cls-1" x1="33.44" y1="74.76" x2="35.16" y2="67.97"/>
          <line class="cls-1" x1="11.86" y1="66.95" x2="9.96" y2="73.69"/>
          <line class="cls-1" x1="11.88" y1="74.23" x2="13.79" y2="67.49"/>
          <line class="cls-1" x1="1.86" y1="67.72" x2="3.88" y2="74.42"/>
          <line class="cls-1" x1="5.79" y1="73.85" x2="3.78" y2="67.14"/>
          <line class="cls-1" x1="15.45" y1="46.05" x2="11.97" y2="52.12"/>
          <line class="cls-1" x1="13.71" y1="53.12" x2="17.19" y2="47.04"/>
          <line class="cls-1" x1="45.51" y1="13.86" x2="41.08" y2="8.44"/>
          <line class="cls-1" x1="39.53" y1="9.71" x2="43.96" y2="15.13"/>
          <line class="cls-1" x1="33.25" y1="12.02" x2="35.63" y2="18.6"/>
          <line class="cls-1" x1="37.51" y1="17.92" x2="35.13" y2="11.34"/>
          <line class="cls-1" x1="59.79" y1="60.1" x2="53.35" y2="57.37"/>
          <line class="cls-1" x1="52.57" y1="59.21" x2="59.01" y2="61.94"/>
          <line class="cls-1" x1="59.99" y1="42.14" x2="58.08" y2="48.88"/>
          <line class="cls-1" x1="60.01" y1="49.42" x2="61.91" y2="42.69"/>
          <line class="cls-1" x1="49.58" y1="36.79" x2="51.59" y2="43.5"/>
          <line class="cls-1" x1="53.51" y1="42.92" x2="51.49" y2="36.22"/>
          <line class="cls-1" x1="30.03" y1="31.49" x2="33.51" y2="25.42"/>
          <line class="cls-1" x1="31.77" y1="24.43" x2="28.29" y2="30.5"/>
          <line class="cls-1" x1="15.53" y1="24.71" x2="19.96" y2="30.13"/>
          <line class="cls-1" x1="21.51" y1="28.86" x2="17.08" y2="23.44"/>
          <line class="cls-1" x1="7.75" y1="26.52" x2="10.13" y2="33.1"/>
          <line class="cls-1" x1="12.01" y1="32.42" x2="9.63" y2="25.84"/>
          <line class="cls-1" x1="59.72" y1="24.48" x2="58" y2="31.27"/>
          <line class="cls-1" x1="59.94" y1="31.76" x2="61.66" y2="24.97"/>
          <line class="cls-1" x1="43.9" y1="28.11" x2="50.34" y2="30.85"/>
          <line class="cls-1" x1="51.13" y1="29" x2="44.68" y2="26.27"/>
          <line class="cls-1" x1="27.08" y1="58.29" x2="29.09" y2="65"/>
          <line class="cls-1" x1="31.01" y1="64.42" x2="28.99" y2="57.72"/>
          <line class="cls-1" x1="45.98" y1="59.37" x2="39.05" y2="60.34"/>
          <line class="cls-1" x1="39.33" y1="62.32" x2="46.26" y2="61.35"/>
          <line class="cls-1" x1="46.12" y1="47.15" x2="44.56" y2="53.97"/>
          <line class="cls-1" x1="46.51" y1="54.42" x2="48.07" y2="47.6"/>
          <line class="cls-1" x1="27.23" y1="44.22" x2="23.49" y2="50.14"/>
          <line class="cls-1" x1="25.18" y1="51.21" x2="28.92" y2="45.29"/>
          <line class="cls-1" x1="28.9" y1="35.62" x2="22.48" y2="38.42"/>
          <line class="cls-1" x1="23.28" y1="40.26" x2="29.7" y2="37.46"/>
          <line class="cls-1" x1="15.38" y1="41.23" x2="17.29" y2="34.49"/>
          <line class="cls-1" x1="15.36" y1="33.95" x2="13.46" y2="40.69"/>
          <line class="cls-1" x1="40.92" y1="37.84" x2="38.91" y2="31.14"/>
          <line class="cls-1" x1="36.99" y1="31.72" x2="39.01" y2="38.42"/>
          <line class="cls-1" x1="27.21" y1="14.68" x2="21.62" y2="18.89"/>
          <line class="cls-1" x1="22.83" y1="20.49" x2="28.42" y2="16.28"/>
          <line class="cls-1" x1="17.95" y1="14.86" x2="16" y2="8.14"/>
          <line class="cls-1" x1="14.08" y1="8.69" x2="16.02" y2="15.42"/>
          <line class="cls-1" x1="7.41" y1="8.34" x2="7" y2="15.33"/>
          <line class="cls-1" x1="9" y1="15.45" x2="9.4" y2="8.46"/>
          <line class="cls-1" x1="20.26" y1="56.2" x2="16" y2="61.76"/>
          <line class="cls-1" x1="17.59" y1="62.97" x2="21.85" y2="57.41"/>
          <line class="cls-1" x1="12.47" y1="60.61" x2="7.62" y2="55.56"/>
          <line class="cls-1" x1="6.17" y1="56.94" x2="11.02" y2="61.99"/>
          <line class="cls-1" x1="52.51" y1="23.42" x2="56.91" y2="17.98"/>
          <line class="cls-1" x1="55.35" y1="16.72" x2="50.95" y2="22.16"/>
          <line class="cls-1" x1="55.54" y1="13.25" x2="56.32" y2="6.3"/>
          <line class="cls-1" x1="54.33" y1="6.07" x2="53.55" y2="13.03"/>
          <line class="cls-1" x1="32.57" y1="48.21" x2="39.01" y2="50.94"/>
          <line class="cls-1" x1="39.79" y1="49.1" x2="33.35" y2="46.37"/>
          <line class="cls-1" x1="48.03" y1="-3.79" x2="52.46" y2="1.63"/>
          <line class="cls-1" x1="54.01" y1=".36" x2="49.58" y2="-5.06"/>
        </g>
        <g>
          <line class="cls-1" x1="-5.78" y1="4.58" x2=".39" y2="7.9"/>
          <line class="cls-1" x1="1.33" y1="6.14" x2="-4.83" y2="2.82"/>
          <line class="cls-1" x1="-3.26" y1="25.22" x2="3.26" y2="22.67"/>
          <line class="cls-1" x1="2.53" y1="20.81" x2="-3.99" y2="23.36"/>
          <line class="cls-1" x1="-6.07" y1="33.83" x2=".76" y2="35.37"/>
          <line class="cls-1" x1="1.2" y1="33.42" x2="-5.62" y2="31.88"/>
          <line class="cls-1" x1="-6.03" y1="55.2" x2=".76" y2="56.92"/>
          <line class="cls-1" x1="1.25" y1="54.98" x2="-5.53" y2="53.26"/>
          <line class="cls-1" x1="-4.99" y1="65.17" x2="1.66" y2="62.98"/>
          <line class="cls-1" x1="1.03" y1="61.08" x2="-5.62" y2="63.27"/>
        </g>
        <g>
          <line class="cls-1" x1="62.45" y1="-3.45" x2="58.97" y2="2.62"/>
          <line class="cls-1" x1="60.71" y1="3.62" x2="64.19" y2="-2.46"/>
          <line class="cls-1" x1="48.03" y1="-3.79" x2="52.46" y2="1.63"/>
          <line class="cls-1" x1="54.01" y1=".36" x2="49.58" y2="-5.06"/>
          <line class="cls-1" x1="41.75" y1="-1.48" x2="44.13" y2="5.1"/>
          <line class="cls-1" x1="46.01" y1="4.42" x2="43.63" y2="-2.16"/>
          <line class="cls-1" x1="33.22" y1="-4.52" x2="31.5" y2="2.27"/>
          <line class="cls-1" x1="33.44" y1="2.76" x2="35.16" y2="-4.03"/>
          <line class="cls-1" x1="11.86" y1="-5.05" x2="9.96" y2="1.69"/>
          <line class="cls-1" x1="11.88" y1="2.23" x2="13.79" y2="-4.51"/>
          <line class="cls-1" x1="1.86" y1="-4.28" x2="3.88" y2="2.42"/>
          <line class="cls-1" x1="5.79" y1="1.85" x2="3.78" y2="-4.86"/>
        </g>
      </g>
    </pattern>
  </defs>
  <g id="Scratch">
    <g>
      <path class="cls-4" d="m40.04,2.8c1.88.73,3.43,2.05,5.17,3.9-4.33,4.52-8.23,6.03-12.73,6.03s-8.41-1.51-12.74-6.03c1.73-1.85,3.29-3.18,5.17-3.9.52,1.59,1.31,3.31,2.37,4.78,1.29,1.8,3.03,3.32,5.2,3.32s3.9-1.53,5.19-3.32c1.06-1.48,1.85-3.19,2.37-4.78h0Zm-12.83-.11c1.74.27,3.45.55,5.27.54,1.83.01,3.53-.26,5.26-.54-.47,1.27-.92,2.61-1.71,3.71-1.1,1.53-2.37,2.48-3.55,2.48s-2.46-.95-3.56-2.48c-.79-1.11-1.24-2.44-1.71-3.71Zm-1.63-2.19c-.09,0-.18.01-.27.04-3.05.82-5.26,2.69-7.65,5.34-3.41,1.23-6.83,2.67-8.08,5.29L.6,30.15c-.06.14-.1.28-.1.43v29.56c0,.56.45,1.01,1.01,1.01h8.68c.55,0,1-.45,1.01-1l.32-24.44,3.11-8.29v30.2c0,.56.45,1.01,1.01,1.01h33.68c.56,0,1.01-.45,1.01-1.01v-30.2s3.1,8.29,3.1,8.29l.31,24.44c0,.55.46,1,1.01,1h8.68c.55,0,1.01-.45,1.01-1.01v-29.56c0-.15-.03-.3-.1-.43l-8.99-18.98c-1.53-3.23-5.4-4.52-8.08-5.29-2.38-2.65-4.6-4.52-7.65-5.34-.17-.05-.35-.05-.53,0-2.23.49-4.3.68-6.64.68-2.34,0-4.41-.2-6.65-.69-.08-.02-.15-.03-.23-.03h0Z"/>
      <path class="cls-3" d="m40.04,2.8c1.88.73,3.43,2.05,5.17,3.9-4.33,4.52-8.23,6.03-12.73,6.03s-8.41-1.51-12.74-6.03c1.73-1.85,3.29-3.18,5.17-3.9.52,1.59,1.31,3.31,2.37,4.78,1.29,1.8,3.03,3.32,5.2,3.32s3.9-1.53,5.19-3.32c1.06-1.48,1.85-3.19,2.37-4.78h0Zm-12.83-.11c1.74.27,3.45.55,5.27.54,1.83.01,3.53-.26,5.26-.54-.47,1.27-.92,2.61-1.71,3.71-1.1,1.53-2.37,2.48-3.55,2.48s-2.46-.95-3.56-2.48c-.79-1.11-1.24-2.44-1.71-3.71Zm-1.63-2.19c-.09,0-.18.01-.27.04-3.05.82-5.26,2.69-7.65,5.34-3.41,1.23-6.83,2.67-8.08,5.29L.6,30.15c-.06.14-.1.28-.1.43v29.56c0,.56.45,1.01,1.01,1.01h8.68c.55,0,1-.45,1.01-1l.32-24.44,3.11-8.29v30.2c0,.56.45,1.01,1.01,1.01h33.68c.56,0,1.01-.45,1.01-1.01v-30.2s3.1,8.29,3.1,8.29l.31,24.44c0,.55.46,1,1.01,1h8.68c.55,0,1.01-.45,1.01-1.01v-29.56c0-.15-.03-.3-.1-.43l-8.99-18.98c-1.53-3.23-5.4-4.52-8.08-5.29-2.38-2.65-4.6-4.52-7.65-5.34-.17-.05-.35-.05-.53,0-2.23.49-4.3.68-6.64.68-2.34,0-4.41-.2-6.65-.69-.08-.02-.15-.03-.23-.03h0Z"/>
    </g>
  </g>
</svg>