<?xml version="1.0" encoding="UTF-8"?>
<svg id="Layer_2" data-name="Layer 2" xmlns="http://www.w3.org/2000/svg" viewBox="0 0 63.94 57.78">
  <defs>
    <style>
      .cls-1 {
        fill-rule: evenodd;
        stroke: #cbcbcb;
      }
    </style>
  </defs>
  <g id="Scratch">
    <path class="cls-1" d="m26.41,2.29c1.85.38,3.66.56,5.57.56s3.71-.17,5.56-.56c-.44,4.11-3.09,6.14-5.56,6.17-2.48-.04-5.12-2.06-5.57-6.17ZM38.64,0c-.19,0-.37.05-.53.14-2.04.52-3.95.68-6.13.68s-4.17-.17-6.25-.71c-.13-.06-.27-.08-.41-.08-.14,0-.27.03-.4.09l-8.03,1.98c-3.45.85-5.71,2.39-7.7,5.12-.04.05-.07.11-.1.17L.1,26.78c-.06.13-.1.28-.1.42v29.57c0,.56.45,1.01,1.01,1.01h8.68c.55,0,1-.45,1.01-1l.32-24.45,3.1-8.28v29.79c0,.56.45,1.01,1.01,1.01h33.68c.56,0,1.01-.45,1.01-1l.04-29.76,3.06,8.25.31,24.45c0,.55.46,1,1.02,1h8.68c.56,0,1.01-.45,1.01-1.01v-29.57c0-.14-.03-.29-.09-.42l-8.99-19.39c-.03-.06-.06-.12-.1-.17-1.99-2.73-4.25-4.27-7.7-5.12l-7.92-1.95c-.16-.1-.33-.15-.51-.15h0Z"/>
  </g>
</svg>