<?xml version="1.0" encoding="UTF-8"?>
<svg id="Layer_2" data-name="Layer 2" xmlns="http://www.w3.org/2000/svg" xmlns:xlink="http://www.w3.org/1999/xlink" viewBox="0 0 47.53 65.01">
  <defs>
    <style>
      .cls-1 {
        stroke: #66297b;
        stroke-dasharray: 0 0 2 2;
        stroke-width: .3px;
      }

      .cls-1, .cls-2 {
        fill: none;
      }

      .cls-3 {
        fill: #fafafa;
        stroke-width: 1.5px;
      }

      .cls-3, .cls-4 {
        stroke: #555;
        stroke-miterlimit: 10;
      }

      .cls-4 {
        fill: url(#USGS_19_Land_Inundation);
        stroke-width: .5px;
      }
    </style>
    <pattern id="USGS_19_Land_Inundation" data-name="USGS 19 Land Inundation" x="0" y="0" width="72" height="72" patternTransform="translate(1224.41 1780.48)" patternUnits="userSpaceOnUse" viewBox="0 0 72 72">
      <g>
        <rect class="cls-2" width="72" height="72"/>
        <g>
          <line class="cls-1" x1="71" y1="71" x2="144.44" y2="71"/>
          <line class="cls-1" x1="71" y1="67" x2="144.44" y2="67"/>
          <line class="cls-1" x1="71" y1="63" x2="144.44" y2="63"/>
          <line class="cls-1" x1="71" y1="59" x2="144.44" y2="59"/>
          <line class="cls-1" x1="71" y1="55" x2="144.44" y2="55"/>
          <line class="cls-1" x1="71" y1="51" x2="144.44" y2="51"/>
          <line class="cls-1" x1="71" y1="47" x2="144.44" y2="47"/>
          <line class="cls-1" x1="71" y1="43" x2="144.44" y2="43"/>
          <line class="cls-1" x1="71" y1="39" x2="144.44" y2="39"/>
          <line class="cls-1" x1="71" y1="35" x2="144.44" y2="35"/>
          <line class="cls-1" x1="71" y1="31" x2="144.44" y2="31"/>
          <line class="cls-1" x1="71" y1="27" x2="144.44" y2="27"/>
          <line class="cls-1" x1="71" y1="23" x2="144.44" y2="23"/>
          <line class="cls-1" x1="71" y1="19" x2="144.44" y2="19"/>
          <line class="cls-1" x1="71" y1="15" x2="144.44" y2="15"/>
          <line class="cls-1" x1="71" y1="11" x2="144.44" y2="11"/>
          <line class="cls-1" x1="71" y1="7" x2="144.44" y2="7"/>
          <line class="cls-1" x1="71" y1="3" x2="144.44" y2="3"/>
        </g>
        <g>
          <line class="cls-1" x1="-1" y1="71" x2="72.44" y2="71"/>
          <line class="cls-1" x1="-1" y1="67" x2="72.44" y2="67"/>
          <line class="cls-1" x1="-1" y1="63" x2="72.44" y2="63"/>
          <line class="cls-1" x1="-1" y1="59" x2="72.44" y2="59"/>
          <line class="cls-1" x1="-1" y1="55" x2="72.44" y2="55"/>
          <line class="cls-1" x1="-1" y1="51" x2="72.44" y2="51"/>
          <line class="cls-1" x1="-1" y1="47" x2="72.44" y2="47"/>
          <line class="cls-1" x1="-1" y1="43" x2="72.44" y2="43"/>
          <line class="cls-1" x1="-1" y1="39" x2="72.44" y2="39"/>
          <line class="cls-1" x1="-1" y1="35" x2="72.44" y2="35"/>
          <line class="cls-1" x1="-1" y1="31" x2="72.44" y2="31"/>
          <line class="cls-1" x1="-1" y1="27" x2="72.44" y2="27"/>
          <line class="cls-1" x1="-1" y1="23" x2="72.44" y2="23"/>
          <line class="cls-1" x1="-1" y1="19" x2="72.44" y2="19"/>
          <line class="cls-1" x1="-1" y1="15" x2="72.44" y2="15"/>
          <line class="cls-1" x1="-1" y1="11" x2="72.44" y2="11"/>
          <line class="cls-1" x1="-1" y1="7" x2="72.44" y2="7"/>
          <line class="cls-1" x1="-1" y1="3" x2="72.44" y2="3"/>
          <line class="cls-1" x1="1.04" y1="69" x2="74.48" y2="69"/>
          <line class="cls-1" x1="1.04" y1="65" x2="74.48" y2="65"/>
          <line class="cls-1" x1="1.04" y1="61" x2="74.48" y2="61"/>
          <line class="cls-1" x1="1.04" y1="57" x2="74.48" y2="57"/>
          <line class="cls-1" x1="1.04" y1="53" x2="74.48" y2="53"/>
          <line class="cls-1" x1="1.04" y1="49" x2="74.48" y2="49"/>
          <line class="cls-1" x1="1.04" y1="45" x2="74.48" y2="45"/>
          <line class="cls-1" x1="1.04" y1="41" x2="74.48" y2="41"/>
          <line class="cls-1" x1="1.04" y1="37" x2="74.48" y2="37"/>
          <line class="cls-1" x1="1.04" y1="33" x2="74.48" y2="33"/>
          <line class="cls-1" x1="1.04" y1="29" x2="74.48" y2="29"/>
          <line class="cls-1" x1="1.04" y1="25" x2="74.48" y2="25"/>
          <line class="cls-1" x1="1.04" y1="21" x2="74.48" y2="21"/>
          <line class="cls-1" x1="1.04" y1="17" x2="74.48" y2="17"/>
          <line class="cls-1" x1="1.04" y1="13" x2="74.48" y2="13"/>
          <line class="cls-1" x1="1.04" y1="9" x2="74.48" y2="9"/>
          <line class="cls-1" x1="1.04" y1="5" x2="74.48" y2="5"/>
          <line class="cls-1" x1="1.04" y1="1" x2="74.48" y2="1"/>
        </g>
        <g>
          <line class="cls-1" x1="-73" y1="71" x2=".44" y2="71"/>
          <line class="cls-1" x1="-73" y1="67" x2=".44" y2="67"/>
          <line class="cls-1" x1="-73" y1="63" x2=".44" y2="63"/>
          <line class="cls-1" x1="-73" y1="59" x2=".44" y2="59"/>
          <line class="cls-1" x1="-73" y1="55" x2=".44" y2="55"/>
          <line class="cls-1" x1="-73" y1="51" x2=".44" y2="51"/>
          <line class="cls-1" x1="-73" y1="47" x2=".44" y2="47"/>
          <line class="cls-1" x1="-73" y1="43" x2=".44" y2="43"/>
          <line class="cls-1" x1="-73" y1="39" x2=".44" y2="39"/>
          <line class="cls-1" x1="-73" y1="35" x2=".44" y2="35"/>
          <line class="cls-1" x1="-73" y1="31" x2=".44" y2="31"/>
          <line class="cls-1" x1="-73" y1="27" x2=".44" y2="27"/>
          <line class="cls-1" x1="-73" y1="23" x2=".44" y2="23"/>
          <line class="cls-1" x1="-73" y1="19" x2=".44" y2="19"/>
          <line class="cls-1" x1="-73" y1="15" x2=".44" y2="15"/>
          <line class="cls-1" x1="-73" y1="11" x2=".44" y2="11"/>
          <line class="cls-1" x1="-73" y1="7" x2=".44" y2="7"/>
          <line class="cls-1" x1="-73" y1="3" x2=".44" y2="3"/>
          <line class="cls-1" x1="-70.96" y1="69" x2="2.48" y2="69"/>
          <line class="cls-1" x1="-70.96" y1="65" x2="2.48" y2="65"/>
          <line class="cls-1" x1="-70.96" y1="61" x2="2.48" y2="61"/>
          <line class="cls-1" x1="-70.96" y1="57" x2="2.48" y2="57"/>
          <line class="cls-1" x1="-70.96" y1="53" x2="2.48" y2="53"/>
          <line class="cls-1" x1="-70.96" y1="49" x2="2.48" y2="49"/>
          <line class="cls-1" x1="-70.96" y1="45" x2="2.48" y2="45"/>
          <line class="cls-1" x1="-70.96" y1="41" x2="2.48" y2="41"/>
          <line class="cls-1" x1="-70.96" y1="37" x2="2.48" y2="37"/>
          <line class="cls-1" x1="-70.96" y1="33" x2="2.48" y2="33"/>
          <line class="cls-1" x1="-70.96" y1="29" x2="2.48" y2="29"/>
          <line class="cls-1" x1="-70.96" y1="25" x2="2.48" y2="25"/>
          <line class="cls-1" x1="-70.96" y1="21" x2="2.48" y2="21"/>
          <line class="cls-1" x1="-70.96" y1="17" x2="2.48" y2="17"/>
          <line class="cls-1" x1="-70.96" y1="13" x2="2.48" y2="13"/>
          <line class="cls-1" x1="-70.96" y1="9" x2="2.48" y2="9"/>
          <line class="cls-1" x1="-70.96" y1="5" x2="2.48" y2="5"/>
          <line class="cls-1" x1="-70.96" y1="1" x2="2.48" y2="1"/>
        </g>
      </g>
    </pattern>
  </defs>
  <g id="Scratch">
    <g>
      <path class="cls-3" d="m38.48,8.16l1.2,10.51c-1.42-.28-2.4-1.37-2.62-3.29l-.74-6.46c.83-.24,1.54-.49,2.16-.76h0Zm-29.42,0c.62.27,1.34.52,2.18.76l-.74,6.45c-.22,1.93-1.21,3.02-2.63,3.3l1.2-10.51Zm-.26-7.41c-.53-.01-.97.37-1.03.9L.76,63.14c-.06.6.4,1.12,1,1.12h12.38c.47,0,.87-.31.98-.77l8.65-35.2,8.65,35.2c.12.45.52.77.98.77h12.38c.6,0,1.07-.52,1-1.12L39.78,1.65c-.09-.72-.88-1.12-1.51-.75-1.98,1.15-5.99,2.56-14.5,2.56S11.25,2.04,9.27.89c-.14-.09-.31-.14-.48-.14h0Z"/>
      <path class="cls-4" d="m38.48,8.16l1.2,10.51c-1.42-.28-2.4-1.37-2.62-3.29l-.74-6.46c.83-.24,1.54-.49,2.16-.76h0Zm-29.42,0c.62.27,1.34.52,2.18.76l-.74,6.45c-.22,1.93-1.21,3.02-2.63,3.3l1.2-10.51Zm-.26-7.41c-.53-.01-.97.37-1.03.9L.76,63.14c-.06.6.4,1.12,1,1.12h12.38c.47,0,.87-.31.98-.77l8.65-35.2,8.65,35.2c.12.45.52.77.98.77h12.38c.6,0,1.07-.52,1-1.12L39.78,1.65c-.09-.72-.88-1.12-1.51-.75-1.98,1.15-5.99,2.56-14.5,2.56S11.25,2.04,9.27.89c-.14-.09-.31-.14-.48-.14h0Z"/>
    </g>
  </g>
</svg>