<?xml version="1.0" encoding="UTF-8"?>
<svg id="Layer_2" data-name="Layer 2" xmlns="http://www.w3.org/2000/svg" xmlns:xlink="http://www.w3.org/1999/xlink" viewBox="0 0 64.94 58.78">
  <defs>
    <style>
      .cls-1 {
        fill: url(#Circles);
      }

      .cls-1, .cls-2 {
        fill-rule: evenodd;
        stroke: #cbcbcb;
        stroke-miterlimit: 10;
      }

      .cls-3 {
        stroke: #231f20;
        stroke-width: .3px;
      }

      .cls-3, .cls-4 {
        fill: none;
      }

      .cls-2 {
        fill: #fff;
      }
    </style>
    <pattern id="Circles" x="0" y="0" width="46.77" height="54" patternTransform="translate(-838.79 401.19) scale(.75)" patternUnits="userSpaceOnUse" viewBox="0 0 46.77 54">
      <g>
        <rect class="cls-4" x="0" width="46.77" height="54"/>
        <g>
          <path class="cls-3" d="m41.06,21.58c.41-.72.17-1.63-.55-2.05-.72-.41-1.63-.17-2.05.55-.41.72-.17,1.63.55,2.05.72.41,1.63.17,2.05-.55Z"/>
          <path class="cls-3" d="m39.81,29.92c-.41-.72-1.33-.96-2.05-.55-.72.41-.96,1.33-.55,2.05.41.72,1.33.96,2.05.55.72-.41.96-1.33.55-2.05Z"/>
          <path class="cls-3" d="m31.56,16.83c-.41-.72-1.33-.96-2.05-.55-.72.41-.96,1.33-.55,2.05.41.72,1.33.96,2.05.55.72-.41.96-1.33.55-2.05Z"/>
          <path class="cls-3" d="m24.02,23.62c.41-.72.17-1.64-.55-2.05-.72-.41-1.64-.17-2.05.55-.41.72-.17,1.63.55,2.05.72.41,1.63.17,2.05-.55Z"/>
          <path class="cls-3" d="m26.81,29.83c-.41-.72-1.33-.96-2.05-.55-.72.41-.96,1.33-.55,2.05.41.72,1.33.96,2.05.55.72-.41.96-1.33.55-2.05Z"/>
          <circle class="cls-3" cx="32.43" cy="36" r="1.5"/>
          <path class="cls-3" d="m6.52,23.67c-.41-.72-.17-1.64.55-2.05.72-.41,1.63-.17,2.05.55.41.72.17,1.63-.55,2.05-.72.41-1.63.17-2.05-.55Z"/>
          <path class="cls-3" d="m7.15,31.25c.41-.72,1.33-.96,2.05-.55.72.42.96,1.33.55,2.05-.41.72-1.33.96-2.05.55-.72-.41-.96-1.33-.55-2.05Z"/>
          <path class="cls-3" d="m12.42,16.42c.41-.72,1.33-.96,2.05-.55.72.41.96,1.33.55,2.05-.41.72-1.33.96-2.05.55-.72-.41-.96-1.33-.55-2.05Z"/>
          <circle class="cls-3" cx="18" cy="35" r="1.5"/>
          <path class="cls-3" d="m41.02,50c-.41.72-1.33.96-2.05.55-.72-.41-.96-1.33-.55-2.05.41-.72,1.33-.96,2.05-.55.72.41.96,1.33.55,2.05Z"/>
          <path class="cls-3" d="m25.31,50.08c-.41.72-1.33.96-2.05.55-.72-.42-.96-1.33-.55-2.05.41-.72,1.33-.96,2.05-.55.72.41.96,1.33.55,2.05Z"/>
          <circle class="cls-3" cx="31.18" cy="45" r="1.5"/>
          <path class="cls-3" d="m5.77,50.38c.41.72,1.33.96,2.05.55.72-.41.96-1.33.55-2.05-.41-.72-1.33-.96-2.05-.55-.72.41-.96,1.33-.55,2.05Z"/>
          <circle class="cls-3" cx="15.84" cy="43" r="1.5"/>
          <path class="cls-3" d="m40.27,3.75c.41.72.17,1.63-.55,2.05-.72.42-1.63.17-2.05-.55-.41-.72-.17-1.64.55-2.05.72-.41,1.63-.17,2.05.55Z"/>
          <path class="cls-3" d="m32.48,9.75c-.41.72-1.33.96-2.05.55-.72-.41-.96-1.33-.55-2.05.41-.72,1.33-.96,2.05-.55.72.41.96,1.33.55,2.05Z"/>
          <path class="cls-3" d="m25.36,3.12c.41.72.17,1.63-.55,2.05-.72.41-1.63.17-2.05-.55-.41-.72-.17-1.64.55-2.05.72-.41,1.63-.17,2.05.55Z"/>
          <path class="cls-3" d="m6.49,3.75c-.41.72-.17,1.63.55,2.05.72.42,1.63.17,2.05-.55.41-.72.17-1.64-.55-2.05-.72-.41-1.64-.17-2.05.55Z"/>
          <path class="cls-3" d="m14.79,8.75c.41.72,1.33.96,2.05.55.72-.41.96-1.33.55-2.05-.41-.72-1.33-.96-2.05-.55-.72.41-.96,1.33-.55,2.05Z"/>
          <circle class="cls-3" cx="47.52" cy="17.5" r="1.5"/>
          <circle class="cls-3" cx="47.5" cy="45" r="1.5"/>
          <path class="cls-3" d="m25.81,39.33c-.41-.72-1.33-.96-2.05-.55-.72.41-.96,1.33-.55,2.05.41.72,1.33.96,2.05.55.72-.41.96-1.33.55-2.05Z"/>
          <path class="cls-3" d="m17.31,26.33c-.41-.72-1.33-.96-2.05-.55-.72.41-.96,1.33-.55,2.05.41.72,1.33.96,2.05.55.72-.41.96-1.33.55-2.05Z"/>
          <path class="cls-3" d="m33.55,24.45c-.41-.72-1.33-.96-2.05-.55-.72.41-.96,1.33-.55,2.05.41.72,1.33.96,2.05.55.72-.41.96-1.33.55-2.05Z"/>
          <path class="cls-3" d="m24.56,12.83c-.41-.72-1.33-.96-2.05-.55-.72.41-.96,1.33-.55,2.05.41.72,1.33.96,2.05.55.72-.41.96-1.33.55-2.05Z"/>
          <path class="cls-3" d="m8.06,12.33c-.41-.72-1.33-.96-2.05-.55-.72.41-.96,1.33-.55,2.05.41.72,1.33.96,2.05.55.72-.41.96-1.33.55-2.05Z"/>
          <path class="cls-3" d="m40.12,12.25c-.41-.72-1.33-.96-2.05-.55-.72.41-.96,1.33-.55,2.05.42.72,1.33.96,2.05.55.72-.41.96-1.33.55-2.05Z"/>
          <path class="cls-3" d="m8.31,39.33c-.41-.72-1.33-.96-2.05-.55-.72.41-.96,1.33-.55,2.05.41.72,1.33.96,2.05.55.72-.41.96-1.33.55-2.05Z"/>
          <path class="cls-3" d="m16.81,52.08c-.41-.72-1.33-.96-2.05-.55-.72.41-.96,1.33-.55,2.05.41.72,1.33.96,2.05.55.72-.42.96-1.33.55-2.05Z"/>
          <path class="cls-3" d="m34.56,52.58c-.41-.72-1.33-.96-2.05-.55-.72.41-.96,1.33-.55,2.05.41.72,1.33.96,2.05.55.72-.42.96-1.33.55-2.05Z"/>
          <circle class="cls-3" cx="39.5" cy="41.25" r="1.5"/>
          <circle class="cls-3" cx="46.77" cy="54.75" r="1.5"/>
          <path class="cls-3" d="m47.8,26.2c-.42-.72-1.33-.96-2.05-.55-.72.41-.96,1.33-.55,2.05.41.72,1.33.96,2.05.55.72-.41.96-1.33.55-2.05Z"/>
          <circle class="cls-3" cx="47.48" cy="8" r="1.5"/>
          <circle class="cls-3" cx="45.48" cy="36.25" r="1.5"/>
        </g>
        <g>
          <circle class="cls-3" cx=".75" cy="17.5" r="1.5"/>
          <circle class="cls-3" cx=".73" cy="45" r="1.5"/>
          <circle class="cls-3" cy="54.75" r="1.5"/>
          <path class="cls-3" d="m1.03,26.2c-.42-.72-1.33-.96-2.05-.55-.72.41-.96,1.33-.55,2.05.41.72,1.33.96,2.05.55.72-.41.96-1.33.55-2.05Z"/>
          <circle class="cls-3" cx=".72" cy="8" r="1.5"/>
          <circle class="cls-3" cx="-1.28" cy="36.25" r="1.5"/>
        </g>
        <g>
          <path class="cls-3" d="m16.81-1.93c-.41-.72-1.33-.96-2.05-.55-.72.41-.96,1.33-.55,2.05.41.72,1.33.96,2.05.55.72-.41.96-1.33.55-2.05Z"/>
          <path class="cls-3" d="m34.56-1.43c-.41-.72-1.33-.96-2.05-.55-.72.41-.96,1.33-.55,2.05.41.72,1.33.96,2.05.55.72-.41.96-1.33.55-2.05Z"/>
          <circle class="cls-3" cx="46.77" cy=".75" r="1.5"/>
        </g>
        <circle class="cls-3" cy=".75" r="1.5"/>
      </g>
    </pattern>
  </defs>
  <g id="Scratch">
    <g>
      <path class="cls-2" d="m26.91,2.79c1.85.38,3.66.56,5.57.56s3.71-.17,5.56-.56c-.44,4.11-3.09,6.14-5.56,6.17-2.48-.04-5.12-2.06-5.57-6.17Zm12.23-2.29c-.19,0-.37.05-.53.14-2.04.52-3.95.68-6.13.68s-4.17-.17-6.25-.71c-.13-.06-.27-.08-.41-.08-.14,0-.27.03-.4.09l-8.03,1.98c-3.45.85-5.71,2.39-7.7,5.12-.04.05-.07.11-.1.17L.6,27.28c-.06.13-.1.28-.1.42v29.57c0,.56.45,1.01,1.01,1.01h8.68c.55,0,1-.45,1.01-1l.32-24.45,3.1-8.28v29.79c0,.56.45,1.01,1.01,1.01h33.68c.56,0,1.01-.45,1.01-1l.04-29.76,3.06,8.25.31,24.45c0,.55.46,1,1.02,1h8.68c.56,0,1.01-.45,1.01-1.01v-29.57c0-.14-.03-.29-.09-.42l-8.99-19.39c-.03-.06-.06-.12-.1-.17-1.99-2.73-4.25-4.27-7.7-5.12l-7.92-1.95c-.16-.1-.33-.15-.51-.15h0Z"/>
      <path class="cls-1" d="m26.91,2.79c1.85.38,3.66.56,5.57.56s3.71-.17,5.56-.56c-.44,4.11-3.09,6.14-5.56,6.17-2.48-.04-5.12-2.06-5.57-6.17Zm12.23-2.29c-.19,0-.37.05-.53.14-2.04.52-3.95.68-6.13.68s-4.17-.17-6.25-.71c-.13-.06-.27-.08-.41-.08-.14,0-.27.03-.4.09l-8.03,1.98c-3.45.85-5.71,2.39-7.7,5.12-.04.05-.07.11-.1.17L.6,27.28c-.06.13-.1.28-.1.42v29.57c0,.56.45,1.01,1.01,1.01h8.68c.55,0,1-.45,1.01-1l.32-24.45,3.1-8.28v29.79c0,.56.45,1.01,1.01,1.01h33.68c.56,0,1.01-.45,1.01-1l.04-29.76,3.06,8.25.31,24.45c0,.55.46,1,1.02,1h8.68c.56,0,1.01-.45,1.01-1.01v-29.57c0-.14-.03-.29-.09-.42l-8.99-19.39c-.03-.06-.06-.12-.1-.17-1.99-2.73-4.25-4.27-7.7-5.12l-7.92-1.95c-.16-.1-.33-.15-.51-.15h0Z"/>
    </g>
  </g>
</svg>